<svg xmlns="http://www.w3.org/2000/svg" viewBox="0 0 800 520" width="800" height="520" role="img" aria-label="Programación: campaña de la próxima temporada">
  <defs>
    <linearGradient id="dark" x1="0" y1="0" x2="1" y2="1">
      <stop offset="0" stop-color="#33291f"/>
      <stop offset=".5" stop-color="#1c1713"/>
      <stop offset="1" stop-color="#0c0b0a"/>
    </linearGradient>
    <radialGradient id="halo" cx=".3" cy=".24" r=".62">
      <stop offset="0" stop-color="#d8c39c" stop-opacity=".32"/>
      <stop offset="1" stop-color="#d8c39c" stop-opacity="0"/>
    </radialGradient>
  </defs>

  <rect width="800" height="520" fill="url(#dark)"/>
  <rect width="800" height="520" fill="url(#halo)"/>

  <!-- calendario de campaña: la temporada que todavía no ha llegado -->
  <g stroke="#f7f3ea" stroke-opacity=".3" stroke-width="3" fill="none">
    <rect x="150" y="118" width="330" height="268" rx="22"/>
    <path d="M150 190 H480"/>
    <path d="M232 118 V92 M398 118 V92"/>
  </g>
  <g fill="#f7f3ea" fill-opacity=".22">
    <rect x="192" y="226" width="52" height="14" rx="7"/>
    <rect x="272" y="226" width="52" height="14" rx="7"/>
    <rect x="352" y="226" width="52" height="14" rx="7"/>
    <rect x="192" y="286" width="52" height="14" rx="7"/>
    <rect x="352" y="286" width="52" height="14" rx="7"/>
    <rect x="192" y="336" width="52" height="14" rx="7"/>
  </g>
  <rect x="262" y="272" width="72" height="42" rx="12" fill="#2b2bff"/>
  <circle cx="540" cy="150" r="10" fill="#f7f3ea" fill-opacity=".35"/>
  <circle cx="576" cy="150" r="10" fill="#f7f3ea" fill-opacity=".18"/>
</svg>
